<mxfile host="65bd71144e">
    <diagram id="iVwE0D0jg1caMj0qQTqd" name="Top Down">
        <mxGraphModel dx="503" dy="512" grid="1" gridSize="10" guides="1" tooltips="1" connect="1" arrows="1" fold="1" page="1" pageScale="1" pageWidth="827" pageHeight="1169" math="0" shadow="0">
            <root>
                <mxCell id="0"/>
                <mxCell id="1" parent="0"/>
                <mxCell id="6" style="edgeStyle=orthogonalEdgeStyle;html=1;exitX=0.5;exitY=1;exitDx=0;exitDy=0;" edge="1" parent="1" source="2" target="4">
                    <mxGeometry relative="1" as="geometry"/>
                </mxCell>
                <mxCell id="13" style="edgeStyle=orthogonalEdgeStyle;html=1;exitX=0.25;exitY=1;exitDx=0;exitDy=0;entryX=0.5;entryY=0;entryDx=0;entryDy=0;rounded=0;" edge="1" parent="1" source="2" target="3">
                    <mxGeometry relative="1" as="geometry"/>
                </mxCell>
                <mxCell id="14" style="edgeStyle=orthogonalEdgeStyle;html=1;exitX=0.75;exitY=1;exitDx=0;exitDy=0;rounded=0;" edge="1" parent="1" source="2" target="5">
                    <mxGeometry relative="1" as="geometry"/>
                </mxCell>
                <mxCell id="2" value="Circumference" style="rounded=0;whiteSpace=wrap;html=1;" vertex="1" parent="1">
                    <mxGeometry x="320" y="80" width="120" height="60" as="geometry"/>
                </mxCell>
                <mxCell id="15" style="edgeStyle=orthogonalEdgeStyle;html=1;exitX=0.5;exitY=1;exitDx=0;exitDy=0;" edge="1" parent="1" source="3" target="7">
                    <mxGeometry relative="1" as="geometry"/>
                </mxCell>
                <mxCell id="3" value="Input&amp;nbsp;" style="rounded=0;whiteSpace=wrap;html=1;" vertex="1" parent="1">
                    <mxGeometry x="160" y="200" width="120" height="60" as="geometry"/>
                </mxCell>
                <mxCell id="16" style="edgeStyle=orthogonalEdgeStyle;html=1;exitX=0.5;exitY=1;exitDx=0;exitDy=0;" edge="1" parent="1" source="4" target="8">
                    <mxGeometry relative="1" as="geometry"/>
                </mxCell>
                <mxCell id="4" value="Process" style="rounded=0;whiteSpace=wrap;html=1;" vertex="1" parent="1">
                    <mxGeometry x="320" y="200" width="120" height="60" as="geometry"/>
                </mxCell>
                <mxCell id="17" style="edgeStyle=orthogonalEdgeStyle;html=1;exitX=0.5;exitY=1;exitDx=0;exitDy=0;entryX=0.5;entryY=0;entryDx=0;entryDy=0;" edge="1" parent="1" source="5" target="9">
                    <mxGeometry relative="1" as="geometry"/>
                </mxCell>
                <mxCell id="5" value="Output" style="rounded=0;whiteSpace=wrap;html=1;" vertex="1" parent="1">
                    <mxGeometry x="480" y="200" width="120" height="60" as="geometry"/>
                </mxCell>
                <mxCell id="7" value="Get radius&amp;nbsp;" style="rounded=0;whiteSpace=wrap;html=1;" vertex="1" parent="1">
                    <mxGeometry x="160" y="320" width="120" height="60" as="geometry"/>
                </mxCell>
                <mxCell id="8" value="circumference = tau * radius" style="rounded=0;whiteSpace=wrap;html=1;" vertex="1" parent="1">
                    <mxGeometry x="320" y="320" width="120" height="60" as="geometry"/>
                </mxCell>
                <mxCell id="9" value="Show circumference&amp;nbsp;" style="rounded=0;whiteSpace=wrap;html=1;" vertex="1" parent="1">
                    <mxGeometry x="480" y="320" width="120" height="60" as="geometry"/>
                </mxCell>
            </root>
        </mxGraphModel>
    </diagram>
    <diagram id="s9NiqN3CwnpG9rbMvjMO" name="Flowchart">
        <mxGraphModel dx="503" dy="512" grid="1" gridSize="10" guides="1" tooltips="1" connect="1" arrows="1" fold="1" page="1" pageScale="1" pageWidth="827" pageHeight="1169" math="0" shadow="0">
            <root>
                <mxCell id="6KanDy6l4g1ltXBm4bSJ-0"/>
                <mxCell id="6KanDy6l4g1ltXBm4bSJ-1" parent="6KanDy6l4g1ltXBm4bSJ-0"/>
                <mxCell id="6KanDy6l4g1ltXBm4bSJ-6" style="edgeStyle=none;html=1;exitX=0.5;exitY=1;exitDx=0;exitDy=0;exitPerimeter=0;entryX=0.5;entryY=0;entryDx=0;entryDy=0;" parent="6KanDy6l4g1ltXBm4bSJ-1" source="6KanDy6l4g1ltXBm4bSJ-2" target="6KanDy6l4g1ltXBm4bSJ-3" edge="1">
                    <mxGeometry relative="1" as="geometry"/>
                </mxCell>
                <mxCell id="6KanDy6l4g1ltXBm4bSJ-2" value="Start" style="strokeWidth=2;html=1;shape=mxgraph.flowchart.start_1;whiteSpace=wrap;" parent="6KanDy6l4g1ltXBm4bSJ-1" vertex="1">
                    <mxGeometry x="240" y="70" width="100" height="60" as="geometry"/>
                </mxCell>
                <mxCell id="6KanDy6l4g1ltXBm4bSJ-7" style="edgeStyle=none;html=1;exitX=0.5;exitY=1;exitDx=0;exitDy=0;" parent="6KanDy6l4g1ltXBm4bSJ-1" source="6KanDy6l4g1ltXBm4bSJ-3" target="6KanDy6l4g1ltXBm4bSJ-4" edge="1">
                    <mxGeometry relative="1" as="geometry"/>
                </mxCell>
                <mxCell id="6KanDy6l4g1ltXBm4bSJ-3" value="Get distance" style="shape=parallelogram;html=1;strokeWidth=2;perimeter=parallelogramPerimeter;whiteSpace=wrap;rounded=1;arcSize=12;size=0.23;" parent="6KanDy6l4g1ltXBm4bSJ-1" vertex="1">
                    <mxGeometry x="240" y="180" width="100" height="60" as="geometry"/>
                </mxCell>
                <mxCell id="6KanDy6l4g1ltXBm4bSJ-8" style="edgeStyle=none;html=1;exitX=0.5;exitY=1;exitDx=0;exitDy=0;entryX=0.62;entryY=0;entryDx=0;entryDy=0;entryPerimeter=0;" parent="6KanDy6l4g1ltXBm4bSJ-1" source="6KanDy6l4g1ltXBm4bSJ-4" target="6KanDy6l4g1ltXBm4bSJ-5" edge="1">
                    <mxGeometry relative="1" as="geometry"/>
                </mxCell>
                <mxCell id="6KanDy6l4g1ltXBm4bSJ-4" value="Time = distance / SPEED_OF_LIGHT" style="rounded=1;whiteSpace=wrap;html=1;absoluteArcSize=1;arcSize=14;strokeWidth=2;" parent="6KanDy6l4g1ltXBm4bSJ-1" vertex="1">
                    <mxGeometry x="170" y="300" width="250" height="100" as="geometry"/>
                </mxCell>
                <mxCell id="6KanDy6l4g1ltXBm4bSJ-10" style="edgeStyle=none;html=1;exitX=0.25;exitY=1;exitDx=0;exitDy=0;" parent="6KanDy6l4g1ltXBm4bSJ-1" source="6KanDy6l4g1ltXBm4bSJ-5" target="6KanDy6l4g1ltXBm4bSJ-9" edge="1">
                    <mxGeometry relative="1" as="geometry"/>
                </mxCell>
                <mxCell id="6KanDy6l4g1ltXBm4bSJ-5" value="Show time" style="shape=parallelogram;html=1;strokeWidth=2;perimeter=parallelogramPerimeter;whiteSpace=wrap;rounded=1;arcSize=12;size=0.23;" parent="6KanDy6l4g1ltXBm4bSJ-1" vertex="1">
                    <mxGeometry x="230" y="440" width="100" height="60" as="geometry"/>
                </mxCell>
                <mxCell id="6KanDy6l4g1ltXBm4bSJ-9" value="Stop" style="strokeWidth=2;html=1;shape=mxgraph.flowchart.terminator;whiteSpace=wrap;" parent="6KanDy6l4g1ltXBm4bSJ-1" vertex="1">
                    <mxGeometry x="210" y="555" width="100" height="60" as="geometry"/>
                </mxCell>
            </root>
        </mxGraphModel>
    </diagram>
</mxfile>